<?xml version="1.0" encoding="utf-8"?>
<!-- Generator: Adobe Illustrator 26.1.0, SVG Export Plug-In . SVG Version: 6.00 Build 0)  -->
<svg version="1.1" id="Capa_1" xmlns="http://www.w3.org/2000/svg" xmlns:xlink="http://www.w3.org/1999/xlink" x="0px" y="0px"
	 viewBox="0 0 40 40" style="enable-background:new 0 0 40 40;" xml:space="preserve">
<style type="text/css">
	.st0{fill:#FFFFFF;}
</style>
<g>
	<path class="st0" d="M3.53,3.6h32.68c1.4,0,2.68,1.14,2.78,2.54c0.11,1.6-1.15,2.93-2.73,2.93H3.47c-1.58,0-2.84-1.33-2.73-2.93
		C0.85,4.74,2.13,3.6,3.53,3.6z M3.53,17.27h32.68c1.4,0,2.68,1.14,2.78,2.54c0.11,1.6-1.15,2.93-2.73,2.93H3.47
		c-1.58,0-2.84-1.33-2.73-2.93C0.85,18.41,2.13,17.27,3.53,17.27z M36.21,36.4H3.53c-1.4,0-2.68-1.14-2.78-2.54
		c-0.11-1.6,1.15-2.93,2.73-2.93h32.79c1.58,0,2.84,1.33,2.73,2.93C38.9,35.26,37.61,36.4,36.21,36.4z"/>
</g>
</svg>
