<?xml version="1.0" encoding="utf-8"?>
<!-- Generator: Adobe Illustrator 26.1.0, SVG Export Plug-In . SVG Version: 6.00 Build 0)  -->
<svg version="1.1" id="Capa_1" xmlns="http://www.w3.org/2000/svg" xmlns:xlink="http://www.w3.org/1999/xlink" x="0px" y="0px"
	 viewBox="0 0 40 40" style="enable-background:new 0 0 40 40;" xml:space="preserve">
<style type="text/css">
	.st0{fill:#FFFFFF;}
</style>
<g>
	<path class="st0" d="M38.58,7c1.54-1.54,1.54-4.05,0-5.59s-4.05-1.54-5.59,0L20,14.41L7,1.42c-1.54-1.54-4.05-1.54-5.59,0
		s-1.54,4.05,0,5.59l13,12.99L1.42,33c-1.54,1.54-1.54,4.05,0,5.59s4.05,1.54,5.59,0l12.99-13l13,12.99c1.54,1.54,4.05,1.54,5.59,0
		s1.54-4.05,0-5.59L25.59,20L38.58,7z"/>
</g>
</svg>
